<svg width="1920" height="1080" viewBox="0 0 1920 1080" fill="none" xmlns="http://www.w3.org/2000/svg">
<rect width="1920" height="1080" fill="#F4F4F4"/>
<path d="M1203.5 177C1427.45 177 1609 358.549 1609 582.5C1609 806.451 1427.45 988 1203.5 988C1189.5 988 1175.66 987.29 1162.02 985.904H798V579.356H798.014C799.703 356.852 980.597 177 1203.5 177Z" fill="#D8E0BD"/>
<path d="M1090.5 403C1252.04 403 1383 533.957 1383 695.5C1383 857.043 1252.04 988 1090.5 988C1080.4 988 1070.41 987.488 1060.58 986.488H798V693.232H798.01C799.228 532.733 929.713 403 1090.5 403Z" fill="#E0EBBD"/>
<rect x="96" y="615" width="735" height="78" fill="#E0EBBD"/>
<path d="M991.5 601C1098.37 601 1185 687.633 1185 794.5C1185 901.367 1098.37 988 991.5 988C984.817 988 978.214 987.661 971.706 987H798V793H798.006C798.812 686.823 885.133 601 991.5 601Z" fill="#C1CAA3"/>
<rect x="96" y="403" width="763" height="78" fill="#D8E0BD"/>
<rect x="97" y="909" width="735" height="78" fill="#C1CAA3"/>
</svg>
