<svg width="1623" height="2135" viewBox="0 0 1623 2135" fill="#171717" xmlns="http://www.w3.org/2000/svg">
<path d="M288.646 2134.26C216.766 2134.26 150.737 2109.19 90.558 2059.04C30.3794 2008.89 0.290039 1940.35 0.290039 1853.43C0.290039 1843.4 2.79746 1838.38 7.81238 1838.38C14.4989 1838.38 20.3496 1847.58 25.3645 1865.97C62.1403 1993.01 144.05 2056.53 271.094 2056.53C449.958 2056.53 625.479 1845.91 797.656 1424.66C802.671 1409.61 806.85 1397.07 810.194 1387.04C815.209 1378.69 821.059 1366.15 827.746 1349.43C834.432 1331.04 843.626 1302.63 855.328 1264.18C868.701 1225.73 887.924 1171.4 912.999 1101.2L1028.34 767.706C948.103 744.304 907.984 697.498 907.984 627.29C907.984 612.245 912.163 604.723 920.521 604.723L1048.4 627.29H1063.45C1071.8 627.29 1077.65 624.782 1081 619.767C1099.39 594.693 1111.92 564.604 1118.61 529.499C1150.37 430.873 1179.62 347.292 1206.37 278.755C1234.79 210.219 1261.53 156.726 1286.61 118.279C1340.1 39.7125 1404.46 0.429199 1479.68 0.429199C1518.13 0.429199 1551.56 11.2948 1579.98 33.026C1608.4 54.7571 1622.6 82.339 1622.6 115.772C1622.6 196.01 1596.69 236.129 1544.87 236.129C1528.16 236.129 1519.8 231.114 1519.8 221.084C1533.17 190.995 1539.86 155.055 1539.86 113.264C1539.86 68.1302 1527.32 45.5631 1502.25 45.5631C1452.1 45.5631 1390.25 117.443 1316.7 261.203C1311.68 272.905 1304.16 288.785 1294.13 308.845C1285.77 328.904 1269.89 372.366 1246.49 439.232C1213.06 534.514 1196.34 586.335 1196.34 594.693C1196.34 611.409 1207.21 619.767 1228.94 619.767L1547.38 612.245C1552.4 612.245 1554.9 615.588 1554.9 622.275C1441.23 660.722 1349.29 691.647 1279.09 715.05C1210.55 736.781 1162.91 750.99 1136.16 757.677C1136.16 764.363 1130.31 785.258 1118.61 820.363C1106.91 853.795 1086.85 917.317 1058.43 1010.93C996.58 1213.2 936.402 1384.54 877.895 1524.95C819.388 1667.04 759.209 1782.38 697.359 1870.98C575.33 2046.5 439.092 2134.26 288.646 2134.26Z" fill="#171717"/>
</svg>
